<svg width="1638" height="1687" viewBox="0 0 1638 1687" fill="none" xmlns="http://www.w3.org/2000/svg">
<path d="M1241.33 989.54C1216.14 1052.21 1186.88 1098.44 1148.78 1139.04C1104.63 1185.99 1052.78 1221.7 993.128 1245.96C909.109 1280.1 822.488 1288.02 733.68 1269.48C716.71 1265.94 699.739 1261.26 683.289 1255.64C628.214 1236.69 580.531 1205.35 537.949 1165.9C497.241 1128.21 465.07 1083.97 441.02 1033.99C413.326 976.422 398.646 915.624 397.189 851.702C395.523 779.451 410.411 710.636 442.686 646.09C498.698 534.07 586.777 458.697 705.466 419.136C741.801 407.06 779.281 400.501 817.594 398.419C873.815 395.399 928.682 402.687 981.884 421.01C1040.81 441.311 1092.03 474.521 1135.66 518.558C1236.33 619.959 1279.65 742.493 1266.11 884.808C1262.26 924.785 1251.95 963.409 1241.33 989.644M1068.51 926.347C1068.51 924.993 1068.51 923.744 1068.51 922.495C1067.78 863.258 1066.94 804.125 1066.21 744.888C1066.21 741.348 1065.17 738.849 1062.57 736.351C1017.8 693.667 973.138 650.879 928.37 608.195C927.017 606.841 924.622 605.904 922.748 605.904C860.697 605.904 798.75 606.113 736.699 606.113C733.263 606.113 730.973 607.362 728.578 609.652C687.246 652.024 645.809 694.292 604.477 736.767C602.811 738.433 601.561 741.244 601.561 743.534C601.561 811.308 601.77 879.082 601.77 946.752C601.77 950.604 602.811 953.415 605.622 956.121C637.064 986.729 668.297 1017.44 699.739 1047.94C710.671 1058.56 722.123 1068.77 733.368 1079.07C734.305 1080.01 735.658 1080.95 736.907 1081.05C742.113 1081.57 747.319 1082.3 752.524 1082.2C807.391 1081.57 862.259 1080.84 917.126 1079.9C919.416 1079.9 922.331 1078.66 923.893 1077.09C971.16 1027.85 1018.32 978.609 1065.49 929.262C1066.42 928.221 1067.36 927.18 1068.19 926.138M1221.13 1011.09C1208.33 977.359 1197.19 923.536 1185.53 889.389C1185.84 890.222 1174.7 856.178 1168.04 838.584C1167 839.417 1166.58 839.834 1166.16 840.25C1138.16 869.504 1110.05 898.862 1082.14 928.221C1080.58 929.886 1079.75 932.905 1079.75 935.196C1080.17 978.088 1080.79 1020.98 1081.31 1063.77C1081.31 1065.23 1081.83 1068.87 1082.04 1068.77C1083.19 1068.35 1083.91 1068.04 1084.64 1067.72L1221.03 1010.88L1221.13 1011.09ZM437.168 684.297C448.204 721.984 466.111 765.813 480.583 803.708C484.747 813.599 489.12 823.385 493.597 833.587C494.846 832.338 496.095 831.089 497.241 829.943C526.913 799.648 556.585 769.249 586.257 739.058C589.068 736.143 590.317 733.332 590.317 729.272C590.109 701.891 590.213 674.615 590.109 647.235C590.109 634.013 590.005 620.896 589.901 607.362C588.651 607.778 587.818 607.987 586.986 608.403L437.168 684.193V684.297ZM586.257 1077.2C587.506 1077.72 588.86 1078.24 590.838 1078.97C590.838 1076.78 590.838 1075.43 590.838 1074.07C590.838 1036.6 590.63 999.118 590.734 961.743C590.734 958.099 589.588 955.705 587.09 953.311C556.793 923.744 526.6 894.178 496.408 864.611C495.158 863.362 493.805 862.217 492.139 860.863C491.515 862.321 491.202 863.258 490.89 864.091C475.377 907.816 460.489 964.971 444.456 1008.49L586.257 1077.3V1077.2ZM1065.59 1087.92C1065.59 1087.92 1061.63 1089.38 1060.91 1089.38C1017.07 1089.9 973.242 1090.52 929.411 1091.25C927.433 1091.25 924.934 1092.61 923.477 1094.06C905.778 1112.39 888.079 1130.81 870.484 1149.24C861.009 1159.13 851.639 1169.02 841.644 1179.54C843.727 1180.37 844.976 1180.89 846.33 1181.41C888.807 1198.69 952.004 1219.2 996.147 1233.05L1065.59 1088.03V1087.92ZM667.256 446.308C650.286 491.907 626.236 544.585 606.038 590.809C605.622 592.058 605.309 593.307 604.893 594.765C606.038 594.765 606.663 594.973 607.288 594.973C646.121 594.973 684.955 594.973 723.789 594.661C725.871 594.661 728.578 593.307 730.036 591.746C750.026 571.549 769.911 551.248 789.797 530.843C798.854 521.578 808.016 512.208 817.699 502.318C814.471 501.068 812.077 500.027 809.578 499.09L667.152 446.308H667.256ZM1102.34 616.523C1093.6 612.88 1084.75 609.444 1075.58 605.8C1075.58 606.841 1075.38 607.466 1075.38 608.091C1075.9 649.213 1076.42 690.44 1077.15 731.562C1077.15 733.644 1078.71 736.247 1080.27 737.808C1105.47 762.065 1130.66 786.218 1155.96 810.371C1159.08 813.286 1162.21 816.201 1165.64 819.324C1166.37 817.971 1166.79 817.242 1167.2 816.409C1186.78 771.019 1202.71 715.946 1222.18 670.555L1102.45 616.628L1102.34 616.523ZM1059.97 591.746C1035.81 544.169 1014.37 490.137 990.317 443.081C940.864 461.299 888.079 483.995 838.105 501.589C839.042 502.734 839.77 504.608 840.187 505.129C869.547 533.862 898.802 562.492 928.266 591.121C929.828 592.579 932.639 593.412 934.825 593.412C956.48 593.412 978.032 592.995 999.583 592.683C1019.26 592.475 1039.04 592.162 1059.76 591.85M605.205 1092.81C628.318 1140.18 651.223 1186.93 674.128 1233.98C723.269 1215.77 772.097 1197.65 821.238 1179.43C819.573 1177.77 818.532 1176.62 817.386 1175.58C796.043 1155.17 774.804 1134.67 753.357 1114.36C746.382 1107.7 738.886 1101.66 731.598 1095.42C730.973 1094.79 730.14 1094.17 729.307 1094.06C724.102 1093.54 718.792 1092.71 713.482 1092.71C691.827 1092.61 670.276 1092.71 648.62 1092.71C634.357 1092.71 620.093 1092.71 605.101 1092.81M1068.09 942.483C1023.95 988.603 980.739 1033.79 936.803 1079.7C939.198 1079.8 940.343 1079.9 941.592 1079.9C981.676 1079.38 1021.76 1078.86 1061.95 1078.34C1068.71 1078.34 1069.96 1076.99 1069.86 1070.12C1069.44 1036.49 1068.92 1002.97 1068.51 969.447C1068.4 960.91 1068.3 952.478 1068.09 942.587M590.213 941.546C590.109 877.624 590.005 815.056 589.797 751.655C588.547 752.696 588.027 753.008 587.61 753.424C558.146 783.511 528.683 813.599 499.219 843.686C495.991 846.913 496.2 849.62 499.427 852.743C517.647 870.545 535.866 888.348 554.086 906.15C565.747 917.498 577.407 928.949 590.109 941.442M1067.46 586.228C1088.49 567.385 1110.15 548.541 1130.76 530.114C1093.39 492.844 1047.37 460.05 999.791 438.396L1067.46 586.228ZM984.695 433.295C935.658 416.221 881.415 407.997 828.839 409.35C831.025 437.251 833.211 464.527 835.398 492.323L984.799 433.295H984.695ZM1063.51 603.198C1022.59 603.718 982.092 604.239 940.343 604.759C982.196 644.736 1023.22 684.089 1065.07 724.066C1064.55 683.048 1064.03 643.279 1063.51 603.094M915.148 594.557C885.372 565.407 856.324 537.089 827.173 508.46C799.062 537.194 771.16 565.615 742.634 594.869C800.624 594.765 857.261 594.661 915.252 594.557M1078.92 914.895C1106.4 886.161 1133.06 858.365 1159.92 830.152C1132.22 803.708 1104.94 777.577 1076.73 750.509C1077.46 805.686 1078.19 859.614 1078.92 914.791M600.937 723.546C639.562 684.089 677.251 645.465 715.877 606.113C676.626 606.113 638.834 606.321 600.728 606.321C600.728 645.465 600.833 683.881 600.937 723.546ZM602.186 968.718C601.77 969.759 601.457 970.176 601.457 970.592C601.457 1005.88 601.561 1041.18 601.561 1076.37C601.561 1080.22 603.227 1081.57 607.183 1081.57C635.814 1081.36 664.341 1081.36 692.972 1081.26C700.676 1081.26 708.485 1081.26 717.126 1081.26C678.5 1043.47 640.499 1006.3 602.186 968.718ZM909.422 1091.46C855.283 1092.19 802.082 1092.92 748.152 1093.54C749.817 1095.21 750.858 1096.35 751.9 1097.4C776.678 1121.13 801.561 1144.87 826.34 1168.6C831.233 1173.29 831.441 1173.29 836.231 1168.4C859.552 1144.04 882.873 1119.67 906.09 1095.31C907.027 1094.38 907.756 1093.23 909.317 1091.36M539.823 1153.09C575.741 1187.55 616.033 1214.83 661.738 1234.5C638.938 1187.86 616.137 1141.22 593.232 1094.17C575.117 1114.16 557.626 1133.42 539.823 1153.09ZM826.652 1267.82C827.277 1241.17 827.902 1215.04 828.63 1188.38C779.281 1206.71 730.661 1224.72 682.144 1242.73C728.787 1260.01 776.782 1268.03 826.756 1267.92M529.828 540.837C495.158 576.754 465.278 621.104 444.143 667.64C491.202 645.049 539.51 619.126 585.84 596.847C566.996 578.004 548.568 559.577 529.828 540.837ZM1230.19 994.433C1247.47 947.585 1258.09 882.101 1257.68 832.234C1231.23 832.858 1205.2 833.483 1178.55 834.108C1196.77 882.205 1212.18 946.96 1230.19 994.537M1077.15 593.932C1123.79 613.296 1173.03 637.032 1218.95 656.084C1199.9 613.712 1171.16 571.549 1139.41 538.026C1118.48 556.766 1098.07 575.089 1077.15 593.932ZM818.427 409.558C772.097 412.057 727.85 421.635 685.059 439.229C731.494 457.031 777.824 474.937 824.986 493.052C822.8 464.839 820.614 437.459 818.427 409.558ZM408.225 851.077C409.474 898.758 419.677 953.206 436.856 997.348C452.889 951.957 467.256 897.821 483.602 851.702C458.094 851.494 433.42 851.285 408.225 850.973M1014.37 1222.84C1057.37 1202.44 1098.18 1174.02 1131.7 1140.39C1113.17 1123.11 1095.16 1106.24 1076.63 1088.96C1056.64 1133.62 1034.04 1178.91 1014.37 1222.84ZM1229.88 682.319C1211.45 725.211 1195.63 779.035 1176.89 822.76C1204.27 822.135 1230.71 821.615 1257.57 820.99C1256.01 776.953 1245.39 723.65 1229.88 682.319ZM654.867 449.639C614.575 470.253 569.182 502.109 537.636 532.821C556.689 551.769 575.533 570.508 594.794 589.768C614.055 544.169 638.001 494.822 654.763 449.639M584.279 1088.23C542.738 1068.66 488.703 1039.51 446.538 1022.54C466.007 1062.62 501.509 1113.43 532.639 1145.08C549.817 1126.02 567.517 1106.66 584.279 1088.13M981.571 1238.25C981.571 1238.25 883.081 1208.48 840.499 1191.4C839.875 1216.49 839.25 1241.79 838.625 1267.4C838.625 1267.4 900.572 1268.96 981.571 1238.15M408.225 839.521C433.628 839.729 458.511 839.938 484.643 840.25C465.278 796.733 446.642 746.345 430.505 702.412C417.907 742.389 408.329 795.38 408.225 839.625M1139.51 1132.27C1169.91 1100.1 1194.48 1064.5 1212.7 1027.02C1170.64 1044.3 1127.64 1062 1083.71 1080.11C1102.76 1097.92 1120.98 1114.99 1139.51 1132.27Z" fill="#004646"/>
<path d="M139.302 896.676C122.54 897.301 109.63 884.287 109.11 867.943C108.589 852.118 120.562 837.335 137.324 836.814C153.149 836.294 166.996 850.14 167.517 865.965C168.037 882.205 155.127 896.052 139.302 896.676Z" fill="#004646"/>
<path d="M281.208 771.643L284.643 751.446C286.725 741.244 285.476 736.976 264.654 728.855L48.4123 645.569C27.5898 637.553 24.2582 640.052 18.4279 648.901L7.49609 666.183L0 663.268L45.9136 544.065C71.317 478.269 107.652 458.28 156.064 476.915C186.882 488.784 204.685 521.994 200.937 570.3L202.186 570.82C249.453 563.637 316.085 551.04 354.919 538.339C362.519 536.048 368.037 532.821 373.139 525.742L378.969 517.934L386.465 520.849L361.686 584.979C309.943 599.97 248.62 611.318 195.523 616.211L183.758 646.61L281.624 684.297C302.446 692.313 305.153 691.481 311.608 681.07L322.957 662.955L330.453 665.87L288.495 774.662L280.999 771.747L281.208 771.643ZM142.322 524.805C91.5148 505.233 72.3581 517.517 57.9906 554.996C51.1192 572.902 47.4752 585.916 46.4341 593.62L168.974 640.78C168.974 640.78 175.325 629.329 179.802 617.669C198.438 569.363 187.819 542.295 142.426 524.805" fill="#004646"/>
<path d="M217.283 204.883C208.849 194.472 210.411 178.752 221.135 170.007C231.858 161.262 247.579 162.824 256.012 173.235C264.237 183.229 262.884 199.365 252.16 208.11C241.437 216.855 225.403 214.982 217.283 204.883ZM292.139 404.457C218.948 314.925 241.437 233.721 297.761 187.601C357.21 138.983 439.25 144.084 504.008 223.31C577.199 312.842 553.357 392.38 496.928 438.396C437.48 487.014 356.897 483.682 292.139 404.457ZM470.067 260.789C424.883 205.508 360.229 157.41 304.841 202.593C258.199 240.696 265.591 292.958 326.08 366.874C371.265 422.155 434.565 468.587 489.536 423.613C536.179 385.509 530.557 334.705 470.067 260.789ZM288.495 146.687C280.062 136.276 281.624 120.556 292.348 111.811C303.071 103.066 318.792 104.628 327.225 115.039C335.45 125.033 334.097 141.169 323.373 149.915C312.649 158.66 296.616 156.786 288.495 146.687Z" fill="#004646"/>
<path d="M626.028 334.913L604.372 256.416L614.888 254.23C627.589 272.969 638.105 288.065 653.201 303.577C668.401 319.089 684.122 322.108 715.148 315.549C758.355 306.388 771.16 280.361 764.289 248.088C757.73 217.064 735.554 205.3 677.043 192.182C619.469 179.273 590.421 162.616 581.051 118.578C571.161 71.834 601.041 28.0049 658.719 15.8243C693.701 8.43269 717.438 8.32858 731.494 10.4107L752.004 80.8914L742.009 83.0776C727.433 61.5274 721.291 54.5522 709.942 43.8292C696.199 30.8158 687.038 26.3391 657.366 32.6897C622.904 39.9772 605.309 60.5904 612.077 92.5514C618.219 121.389 633.524 133.153 687.142 145.021C757.522 160.638 789.172 178.128 797.084 215.71C808.328 268.597 782.3 317.944 713.274 332.623C678.292 340.014 645.705 339.182 626.132 335.121" fill="#004646"/>
<path d="M843.414 293.687L863.925 294.311C874.336 294.832 878.396 293.062 883.393 271.304L935.346 45.4949C940.343 23.7365 937.324 20.7174 927.85 16.2407L909.213 7.80805L910.983 0L1026.34 26.5474L1024.57 34.3554L1001.35 33.6267C990.005 33.3143 986.985 34.4595 981.988 56.2179L934.2 263.808C925.871 299.933 925.976 305.451 972.097 316.07C1010.41 324.919 1019.78 323.878 1036.02 309.199C1044.66 301.599 1059.86 283.068 1075.17 256.312L1085.58 258.707L1058.72 351.466L841.54 301.495L843.31 293.687H843.414Z" fill="#004646"/>
<path d="M1086.62 354.694L1104.63 364.48C1113.69 369.685 1118.17 369.893 1132.43 352.82L1281.1 175.004C1295.47 157.827 1294.12 153.871 1287.66 145.542L1274.86 129.614L1279.96 123.471L1449.56 265.265L1403.02 329.291L1395.52 323.045C1402.39 300.245 1405.2 286.399 1406.35 277.342C1409.06 254.542 1405 247.671 1374.49 222.165C1350.13 201.864 1338.36 194.368 1330.45 190.62L1252.26 284.109L1271.11 299.829C1297.14 321.587 1307.86 328.25 1320.67 322.629C1330.76 318.256 1340.03 312.01 1351.59 303.056L1359.08 309.407L1286.31 396.441L1278.81 390.09C1285.48 376.452 1288.91 368.228 1292.56 356.255C1296.72 342.305 1291.1 336.371 1261.32 311.489L1242.48 295.769L1187.82 361.148C1157.21 397.794 1155.02 402.479 1198.54 438.812C1229.67 464.839 1237.17 467.025 1258.3 461.404C1269.44 458.489 1292.56 447.557 1314.84 434.127L1323.06 440.999L1258.09 508.252L1081.62 360.732L1086.83 354.589L1086.62 354.694Z" fill="#004646"/>
<path d="M1288.49 529.281L1299.43 546.563C1304.74 555.517 1308.59 557.911 1329.41 549.895L1545.86 467.025C1566.68 459.009 1567.52 454.949 1565.95 444.538L1562.52 424.341L1570.01 421.426L1615.72 540.733C1640.92 606.633 1627.28 645.778 1578.86 664.309C1548.05 676.177 1512.54 663.372 1482.98 624.956L1481.73 625.477C1451.43 662.435 1410.41 716.362 1390 751.967C1385.94 758.838 1383.97 764.876 1384.9 773.517L1385.74 783.199L1378.24 786.114L1353.67 721.88C1382.09 676.073 1419.99 626.622 1456.12 587.477L1444.46 557.078L1346.49 594.661C1325.66 602.677 1324.21 605.072 1326.39 617.148L1330.14 638.178L1322.64 641.093L1280.89 532.301L1288.39 529.386L1288.49 529.281ZM1556.9 619.647C1607.81 600.179 1613.74 578.316 1599.37 540.733C1592.5 522.827 1586.46 510.75 1582.09 504.296L1459.45 551.248C1459.45 551.248 1462.36 563.949 1466.84 575.609C1485.37 624.019 1511.4 636.928 1556.79 619.543" fill="#004646"/>
<path d="M1525.35 824.634C1542.11 824.842 1554.4 838.376 1554.19 854.721C1553.98 870.545 1541.38 884.704 1524.62 884.496C1508.8 884.287 1495.57 869.817 1495.78 853.992C1495.99 837.751 1509.53 824.426 1525.35 824.634Z" fill="#004646"/>
<path d="M15.9292 1076.05L28.735 1092.09C34.9818 1100.41 39.0421 1102.29 58.9276 1092.09L264.862 985.688C284.747 975.485 285.06 971.217 282.353 961.119L276.731 941.442L283.914 937.798L385.424 1134.14L317.647 1175.16L313.17 1166.42C328.266 1148.1 336.387 1136.33 340.864 1128.52C352.212 1108.64 351.067 1100.62 332.847 1065.33C318.272 1037.12 310.359 1025.67 304.425 1019.21L196.148 1075.22L207.392 1097.08C223.009 1127.27 230.297 1137.58 244.248 1137.37C255.179 1137.27 266.215 1135.08 280.271 1131.33L284.747 1140.08L183.967 1192.13L179.49 1183.39C190.942 1173.5 197.293 1167.15 205.31 1157.46C214.576 1146.12 211.66 1138.62 193.857 1104.06L182.613 1082.2L106.819 1121.34C64.3414 1143.31 60.5934 1146.74 86.6215 1197.13C105.258 1233.26 111.296 1238.15 132.952 1241.06C144.404 1242.73 169.911 1241.58 195.627 1237.84L200.52 1247.31L114.524 1284.16L8.84955 1079.7L16.0333 1076.05H15.9292Z" fill="#004646"/>
<path d="M410.827 1230.24L409.474 1228.99L258.199 1399.31C240.395 1419.29 241.332 1423.67 250.494 1435.54L262.467 1450.32L257.158 1456.36L190.734 1397.33L196.044 1391.29L209.786 1399.31C220.926 1405.55 227.069 1407.43 244.872 1387.44L395.835 1217.43C410.619 1200.77 409.474 1196.71 403.227 1188.18L390.838 1171.83L396.148 1165.79L458.615 1221.28L416.97 1488.84L418.324 1489.98L540.76 1352.04C558.563 1332.05 557.938 1327.26 548.464 1315.81L535.138 1299.88L540.447 1293.85L608.224 1354.02L602.915 1360.06L589.172 1352.04C578.032 1345.69 571.889 1343.92 554.086 1363.91L376.158 1564.32L361.478 1551.3L410.723 1230.13L410.827 1230.24Z" fill="#004646"/>
<path d="M577.615 1506.33C594.273 1387.85 671.421 1355.37 751.483 1366.62C791.775 1372.24 816.033 1378.8 837.48 1387.23L830.921 1476.03L820.718 1474.58C814.992 1444.49 808.537 1426.37 803.643 1416.28C792.816 1394 786.881 1387.75 747.11 1382.23C682.144 1373.07 641.957 1408.57 628.735 1502.68C614.367 1605.23 635.502 1657.39 705.778 1667.28C730.557 1670.71 747.631 1667.69 759.916 1663.63L769.182 1597.73C772.306 1575.66 769.391 1573.37 759.083 1569.73L738.886 1562.44L740.031 1554.53L850.598 1570.04L849.453 1578.06L833.94 1579.52C822.904 1580.66 819.573 1582.43 816.449 1604.61L805.309 1683.73C781.467 1686.75 745.861 1689.35 704.32 1683.52C613.638 1670.82 562.623 1613.56 577.615 1506.54" fill="#004646"/>
<path d="M961.894 1668.84L979.697 1658.74C988.859 1653.85 991.462 1650.2 984.383 1628.97L911.712 1408.88C904.737 1387.65 900.572 1386.71 890.161 1387.75L869.859 1390.25L867.36 1382.65L1077.25 1313.31L1107.13 1386.71L1097.76 1389.83C1082.04 1372.03 1071.73 1362.24 1064.65 1356.52C1046.75 1342.26 1038.73 1342.05 1000.94 1354.54C970.848 1364.53 958.25 1370.57 950.858 1375.36L989.068 1491.13L1012.39 1483.42C1044.66 1472.81 1055.91 1467.18 1057.99 1453.34C1059.55 1442.51 1059.14 1431.27 1057.68 1416.8L1067.05 1413.67L1102.65 1521.32L1093.28 1524.44C1085.27 1511.53 1080.06 1504.35 1071.73 1494.88C1062.05 1483.95 1054.14 1485.61 1017.18 1497.79L993.857 1505.5L1020.61 1586.49C1035.61 1631.88 1038.42 1636.05 1092.24 1618.35C1130.87 1605.65 1136.59 1600.34 1142.84 1579.52C1146.28 1568.48 1149.19 1543.08 1149.5 1517.16L1159.71 1513.82L1182.61 1604.5L964.289 1676.65L961.79 1669.05L961.894 1668.84Z" fill="#004646"/>
<path d="M1310.36 1530.69L1322.44 1514.14C1328.79 1505.91 1329.62 1501.44 1314.42 1485.09L1157.42 1314.67C1142.32 1298.22 1138.16 1299.05 1129.1 1304.36L1111.61 1314.98L1106.19 1309.05L1200.1 1222.53C1251.95 1174.75 1293.49 1172.98 1328.58 1211.08C1350.96 1235.34 1352.32 1273.02 1327.54 1314.67L1328.47 1315.6C1373.97 1330.07 1439.35 1348.29 1479.85 1354.02C1487.66 1355.27 1494.01 1354.96 1501.82 1350.79L1510.57 1346.42L1515.98 1352.35L1465.38 1398.99C1412.39 1389.52 1352.42 1372.55 1302.55 1353.5L1278.6 1375.57L1349.71 1452.71C1364.81 1469.16 1367.62 1469.58 1378.03 1463.02L1396.15 1451.78L1401.56 1457.71L1315.88 1536.73L1310.46 1530.79L1310.36 1530.69ZM1295.05 1247.83C1258.09 1207.75 1235.61 1210.35 1206.04 1237.52C1191.88 1250.54 1183.03 1260.64 1178.55 1267.09L1267.57 1363.6C1267.57 1363.6 1278.29 1356.1 1287.45 1347.67C1325.56 1312.58 1327.95 1283.64 1295.05 1247.83Z" fill="#004646"/>
<path d="M1588.75 1192.97L1592.61 1171.52C1594.27 1160.69 1593.34 1157.05 1572.41 1149.14L1332.64 1058.67L1329.62 1066.58C1313.69 1108.74 1313.69 1112.59 1330.66 1133.31C1342.11 1147.16 1350.75 1154.76 1371.26 1171.1L1367.52 1181.1L1284.54 1145.49L1370.74 916.977L1456.53 945.086L1452.78 955.08C1426.55 953.727 1415.1 953.727 1397.29 956.642C1370.85 961.014 1368.35 963.825 1352.42 1005.99L1349.4 1013.9L1589.17 1104.37C1610.1 1112.28 1612.8 1111.35 1619.16 1100.83L1630.5 1082.2L1638 1085.01L1596.25 1195.67L1588.75 1192.86V1192.97Z" fill="#004646"/>
</svg>
