<svg width="884" height="108" viewBox="0 0 884 108" fill="none" xmlns="http://www.w3.org/2000/svg">
<path d="M77.5035 67.3797C75.1906 73.1388 72.505 77.3863 69.0069 81.1173C64.9546 85.4318 60.1949 88.7131 54.7185 90.9421C47.0056 94.08 39.0538 94.807 30.9013 93.1042C29.3434 92.7789 27.7855 92.3484 26.2755 91.8318C21.2196 90.0907 16.8422 87.2112 12.9332 83.5855C9.19626 80.1224 6.24301 76.0566 4.03523 71.4646C1.49294 66.1743 0.145336 60.5874 0.0115314 54.7136C-0.141388 48.0744 1.22533 41.7509 4.18815 35.8196C9.33007 25.526 17.4157 18.5998 28.3112 14.9645C31.6468 13.8548 35.0875 13.2521 38.6046 13.0607C43.7657 12.7833 48.8024 13.453 53.6863 15.1367C59.0958 17.0022 63.7981 20.0539 67.8027 24.1006C77.0448 33.4184 81.0207 44.6782 79.7782 57.7557C79.4246 61.4293 78.4784 64.9785 77.5035 67.3893M61.6381 61.5728C61.6381 61.4484 61.6381 61.3336 61.6381 61.2188C61.5712 55.7755 61.4948 50.3416 61.4279 44.8983C61.4279 44.573 61.3323 44.3434 61.0934 44.1138C56.9836 40.1915 52.8835 36.2597 48.7738 32.3374C48.6495 32.213 48.4297 32.1269 48.2577 32.1269C42.5614 32.1269 36.8747 32.146 31.1785 32.146C30.8631 32.146 30.6528 32.2608 30.433 32.4713C26.6387 36.3649 22.8348 40.2489 19.0405 44.1521C18.8875 44.3051 18.7729 44.5634 18.7729 44.7739C18.7729 51.0017 18.792 57.2296 18.792 63.4478C18.792 63.8018 18.8875 64.0601 19.1456 64.3088C22.032 67.1214 24.8992 69.9435 27.7855 72.7465C28.7891 73.7223 29.8404 74.6599 30.8726 75.6069C30.9586 75.693 31.0829 75.7791 31.1976 75.7887C31.6754 75.8365 32.1533 75.9035 32.6312 75.8939C37.668 75.8365 42.7048 75.7696 47.7416 75.6835C47.9518 75.6835 48.2194 75.5687 48.3628 75.4252C52.7019 70.9002 57.0314 66.3752 61.361 61.8406C61.447 61.745 61.533 61.6493 61.6094 61.5537M75.6494 69.36C74.4738 66.2604 73.4512 61.3145 72.3807 58.1767C72.4094 58.2532 71.3868 55.1249 70.7751 53.5082C70.6795 53.5847 70.6413 53.623 70.603 53.6612C68.0321 56.3494 65.4516 59.0472 62.8902 61.745C62.7468 61.8981 62.6703 62.1755 62.6703 62.3859C62.7086 66.3274 62.7659 70.2688 62.8137 74.2006C62.8137 74.3346 62.8615 74.6694 62.8806 74.6598C62.9857 74.6216 63.0526 74.5929 63.1195 74.5642L75.6398 69.3408L75.6494 69.36ZM3.6816 39.3305C4.69469 42.7936 6.33858 46.8211 7.66707 50.3034C8.04937 51.2122 8.45078 52.1115 8.86175 53.049C8.97644 52.9342 9.09113 52.8194 9.19626 52.7142C11.9201 49.9303 14.644 47.1368 17.3679 44.3625C17.626 44.0947 17.7406 43.8364 17.7406 43.4633C17.7215 40.9473 17.7311 38.4408 17.7215 35.9248C17.7215 34.7099 17.712 33.5045 17.7024 32.2608C17.5877 32.2991 17.5113 32.3182 17.4348 32.3565L3.6816 39.321V39.3305ZM17.3679 75.4347C17.4826 75.4826 17.6068 75.5304 17.7884 75.5974C17.7884 75.3965 17.7884 75.2721 17.7884 75.1477C17.7884 71.7038 17.7693 68.2598 17.7789 64.8254C17.7789 64.4906 17.6737 64.2706 17.4444 64.0505C14.6631 61.3336 11.8915 58.6167 9.1198 55.8998C9.00511 55.785 8.88087 55.6798 8.72795 55.5554C8.6706 55.6893 8.64193 55.7754 8.61326 55.852C7.1892 59.8699 5.82247 65.122 4.35062 69.1208L17.3679 75.4443V75.4347ZM61.3705 76.4201C61.3705 76.4201 61.0073 76.554 60.9404 76.554C56.9167 76.6019 52.893 76.6593 48.8693 76.7262C48.6877 76.7262 48.4584 76.8506 48.3246 76.9845C46.6998 78.6682 45.075 80.3615 43.4598 82.0548C42.5901 82.9636 41.7299 83.8724 40.8124 84.8387C41.0035 84.9152 41.1182 84.963 41.2425 85.0109C45.1419 86.5989 50.9433 88.4835 54.9957 89.7559L61.3705 76.4297V76.4201ZM24.8036 17.4614C23.2457 21.6515 21.038 26.4922 19.1838 30.7397C19.1456 30.8545 19.1169 30.9694 19.0787 31.1033C19.1838 31.1033 19.2412 31.1224 19.2985 31.1224C22.8635 31.1224 26.4284 31.1224 29.9933 31.0937C30.1845 31.0937 30.433 30.9694 30.5668 30.8259C32.4018 28.9699 34.2273 27.1045 36.0528 25.2294C36.8843 24.378 37.7253 23.517 38.6142 22.6082C38.3179 22.4934 38.0981 22.3977 37.8687 22.3116L24.7941 17.4614H24.8036ZM64.7443 33.1027C63.9415 32.7679 63.1291 32.4522 62.288 32.1173C62.288 32.213 62.2689 32.2704 62.2689 32.3278C62.3167 36.1066 62.3645 39.8949 62.4314 43.6737C62.4314 43.8651 62.5748 44.1042 62.7181 44.2477C65.031 46.4767 67.3439 48.6962 69.6664 50.9156C69.9531 51.1835 70.2398 51.4514 70.5552 51.7384C70.6221 51.614 70.6604 51.547 70.6986 51.4705C72.4954 47.2995 73.9577 42.2388 75.745 38.0677L64.7539 33.1123L64.7443 33.1027ZM60.8544 30.8259C58.6371 26.4539 56.6682 21.4889 54.4605 17.1648C49.9207 18.8389 45.075 20.9245 40.4874 22.5412C40.5735 22.6464 40.6404 22.8186 40.6786 22.8665C43.3738 25.5068 46.0594 28.1376 48.7642 30.7685C48.9076 30.9024 49.1656 30.9789 49.3663 30.9789C51.3543 30.9789 53.3327 30.9407 55.3111 30.9119C57.1174 30.8928 58.9334 30.8641 60.8353 30.8354M19.1074 76.8697C21.2291 81.2225 23.3318 85.5179 25.4344 89.842C29.9455 88.1678 34.428 86.5033 38.9391 84.8291C38.7862 84.676 38.6906 84.5708 38.5855 84.4751C36.6262 82.6001 34.6765 80.7155 32.7077 78.85C32.0673 78.2377 31.3792 77.6829 30.7101 77.1089C30.6528 77.0515 30.5763 76.9941 30.4999 76.9845C30.022 76.9367 29.5346 76.8602 29.0471 76.8602C27.0592 76.8506 25.0808 76.8602 23.0928 76.8602C21.7835 76.8602 20.4741 76.8602 19.0978 76.8697M61.5999 63.0556C57.5475 67.2936 53.5812 71.4455 49.5479 75.6643C49.7677 75.6739 49.8729 75.6835 49.9876 75.6835C53.6672 75.6356 57.3468 75.5878 61.036 75.54C61.6572 75.54 61.7719 75.4156 61.7624 74.7842C61.7241 71.6942 61.6764 68.6138 61.6381 65.5333C61.6286 64.7489 61.619 63.974 61.5999 63.0652M17.7311 62.9695C17.7215 57.0956 17.712 51.3461 17.6929 45.5201C17.5782 45.6158 17.5304 45.6445 17.4921 45.6827C14.7874 48.4475 12.0826 51.2122 9.37786 53.9769C9.08157 54.2735 9.10069 54.5222 9.39697 54.8092C11.0695 56.4451 12.7421 58.081 14.4146 59.7169C15.4851 60.7596 16.5555 61.812 17.7215 62.9599M61.5426 30.3188C63.4732 28.5873 65.4611 26.8557 67.3535 25.1624C63.9224 21.7376 59.698 18.7241 55.3302 16.7343L61.5426 30.3188ZM53.9444 16.2655C49.4428 14.6966 44.4633 13.9409 39.6368 14.0652C39.8375 16.6291 40.0382 19.1355 40.2389 21.6898L53.9539 16.2655H53.9444ZM61.1794 31.8782C57.4233 31.926 53.7054 31.9738 49.8729 32.0217C53.715 35.6952 57.4806 39.3114 61.3227 42.9849C61.2749 39.2157 61.2271 35.5613 61.1794 31.8686M47.56 31.0841C44.8265 28.4055 42.16 25.8034 39.4839 23.1726C36.9034 25.813 34.342 28.4246 31.7232 31.1128C37.0467 31.1033 42.246 31.0937 47.5695 31.0841M62.5939 60.5205C65.117 57.8801 67.5638 55.3258 70.0296 52.7333C67.4873 50.3034 64.9832 47.9022 62.3932 45.4149C62.4601 50.4851 62.527 55.4406 62.5939 60.5109M18.7155 42.9371C22.2613 39.3114 25.7211 35.7622 29.267 32.146C25.6638 32.146 22.1944 32.1652 18.6964 32.1652C18.6964 35.7622 18.706 39.2923 18.7155 42.9371ZM18.8302 65.4664C18.792 65.562 18.7633 65.6003 18.7633 65.6386C18.7633 68.8816 18.7729 72.1247 18.7729 75.3582C18.7729 75.7122 18.9258 75.8365 19.289 75.8365C21.9173 75.8174 24.536 75.8174 27.1643 75.8078C27.8716 75.8078 28.5884 75.8078 29.3816 75.8078C25.8358 72.3352 22.3473 68.9199 18.8302 65.4664ZM47.0343 76.7454C42.0644 76.8123 37.1806 76.8793 32.2298 76.9367C32.3827 77.0898 32.4783 77.195 32.5738 77.2907C34.8485 79.4718 37.1328 81.653 39.4074 83.8342C39.8566 84.2647 39.8758 84.2647 40.3154 83.815C42.4563 81.5765 44.5972 79.3379 46.7285 77.0993C46.8145 77.0132 46.8814 76.908 47.0247 76.7358M13.1053 82.4088C16.4026 85.5753 20.1013 88.0817 24.2971 89.8898C22.204 85.604 20.1109 81.3182 18.0083 76.9941C16.3453 78.8309 14.7396 80.6007 13.1053 82.4088ZM39.4361 92.9511C39.4935 90.5021 39.5508 88.1009 39.6177 85.6518C35.0875 87.3355 30.6241 88.9906 26.1703 90.6456C30.4521 92.2336 34.8581 92.9703 39.4457 92.9607M12.1878 26.1478C9.00511 29.4483 6.26212 33.5236 4.32195 37.7999C8.64193 35.7239 13.0766 33.3419 17.3297 31.2946C15.5998 29.5631 13.9081 27.8698 12.1878 26.1478ZM76.4809 67.8293C78.0674 63.5244 79.0423 57.507 79.0041 52.9246C76.5765 52.982 74.1871 53.0394 71.7404 53.0968C73.4129 57.5166 74.8274 63.467 76.4809 67.8389M62.4314 31.0268C66.7131 32.8061 71.2338 34.9873 75.4487 36.738C73.6997 32.8444 71.0618 28.9699 68.1468 25.8895C66.2257 27.6115 64.3524 29.2952 62.4314 31.0268ZM38.6811 14.0844C34.428 14.314 30.3661 15.1941 26.4379 16.8108C30.7006 18.4467 34.9537 20.0922 39.2832 21.7567C39.0825 19.1642 38.8818 16.6482 38.6811 14.0844ZM1.02462 54.6562C1.13931 59.0376 2.07595 64.041 3.65293 68.0972C5.12478 63.9262 6.44371 58.9515 7.94424 54.7136C5.60265 54.6944 3.33753 54.6753 1.02462 54.6466M56.6682 88.8184C60.6155 86.9433 64.362 84.3317 67.4395 81.2416C65.7383 79.6536 64.0848 78.1038 62.3836 76.5158C60.5486 80.6198 58.4746 84.7813 56.6682 88.8184ZM76.4522 39.1488C74.7605 43.0902 73.3078 48.0361 71.5875 52.0541C74.1011 51.9967 76.5287 51.9488 78.9945 51.8914C78.8511 47.8448 77.8763 42.9467 76.4522 39.1488ZM23.6663 17.7675C19.9675 19.6617 15.8005 22.589 12.9046 25.4112C14.6536 27.1523 16.3835 28.8743 18.1516 30.6441C19.9198 26.4539 22.118 21.9194 23.6567 17.7675M17.1863 76.4488C13.3729 74.6503 8.41255 71.9716 4.54178 70.4123C6.32902 74.0954 9.58812 78.7639 12.4458 81.6721C14.0228 79.9215 15.6476 78.1421 17.1863 76.4392M53.6576 90.2342C53.6576 90.2342 44.6163 87.4982 40.7073 85.9293C40.6499 88.2348 40.5926 90.5595 40.5352 92.9129C40.5352 92.9129 46.2219 93.0563 53.6576 90.2246M1.02462 53.5943C3.35665 53.6134 5.64088 53.6325 8.03981 53.6612C6.26212 49.6624 4.55133 45.0322 3.06992 40.9951C1.91347 44.6687 1.03418 49.5381 1.02462 53.6038M68.1563 80.4954C70.9471 77.5394 73.2027 74.2676 74.8752 70.8237C71.014 72.4117 67.0668 74.038 63.0335 75.7026C64.7825 77.3385 66.4551 78.9074 68.1563 80.4954Z" fill="#004646"/>
<path d="M118.467 85V81.2914C120.321 81.179 121.642 80.7857 122.429 80.1114C123.271 79.4371 123.805 78.4257 124.03 77.0771C124.255 75.7286 124.367 74.0148 124.367 71.9357V36.8729C124.367 35.6367 124.395 34.4567 124.451 33.3329C124.508 32.1529 124.564 31.1414 124.62 30.2986C123.665 30.3548 122.625 30.411 121.501 30.4671C120.378 30.5233 119.366 30.5795 118.467 30.6357V26C121.895 25.9438 125.35 25.9157 128.834 25.9157C132.318 25.8595 135.83 25.8595 139.37 25.9157C144.652 25.9157 149.007 26.5338 152.434 27.77C155.862 28.95 158.419 30.72 160.104 33.08C161.846 35.44 162.689 38.4181 162.633 42.0143C162.689 44.2619 162.24 46.5095 161.284 48.7571C160.329 50.9486 158.728 52.9152 156.48 54.6571C154.232 56.399 151.142 57.7195 147.209 58.6186C148.332 59.2929 149.344 60.22 150.243 61.4C151.142 62.58 152.069 63.9005 153.024 65.3614L158.166 73.2843C159.233 74.97 160.217 76.4029 161.116 77.5829C162.015 78.7629 163.026 79.69 164.15 80.3643C165.274 80.9824 166.622 81.2914 168.196 81.2914V85H156.48C155.019 83.7638 153.755 82.4433 152.687 81.0386C151.676 79.5776 150.58 77.9481 149.4 76.15L143.584 66.71C142.854 65.5862 142.067 64.3781 141.224 63.0857C140.438 61.7933 139.567 60.6976 138.611 59.7986C137.712 59.7986 136.813 59.7986 135.914 59.7986C135.071 59.7986 134.2 59.7986 133.301 59.7986V73.7057C133.301 75.2229 133.273 76.5995 133.217 77.8357C133.217 79.0157 133.161 79.971 133.049 80.7014C133.723 80.6452 134.425 80.6171 135.156 80.6171C135.942 80.561 136.701 80.5048 137.431 80.4486C138.218 80.3924 138.892 80.3643 139.454 80.3643V85H118.467ZM138.19 55.6686C141.28 55.6124 143.921 55.1348 146.113 54.2357C148.304 53.2805 149.99 51.8476 151.17 49.9371C152.35 47.9705 152.94 45.4419 152.94 42.3514C152.94 40.0476 152.603 38.109 151.929 36.5357C151.254 34.9624 150.299 33.6981 149.063 32.7429C147.827 31.7314 146.338 31.0291 144.596 30.6357C142.91 30.1862 141.084 29.9614 139.117 29.9614C137.319 29.9614 135.999 30.2986 135.156 30.9729C134.369 31.6471 133.863 32.6305 133.639 33.9229C133.414 35.2152 133.301 36.8729 133.301 38.8957V55.4157C134.144 55.4719 134.931 55.5562 135.661 55.6686C136.448 55.7248 137.291 55.7248 138.19 55.6686ZM201.784 86.3486C196.446 86.3486 191.867 85.4495 188.046 83.6514C184.281 81.8533 181.219 79.4652 178.859 76.4871C176.499 73.4529 174.757 70.1095 173.633 66.4571C172.509 62.8048 171.947 59.1524 171.947 55.5C171.947 51.96 172.537 48.3919 173.717 44.7957C174.953 41.1433 176.779 37.8 179.196 34.7657C181.668 31.7314 184.73 29.2871 188.383 27.4329C192.091 25.5786 196.418 24.6514 201.363 24.6514C206.532 24.6514 210.971 25.5786 214.68 27.4329C218.445 29.2871 221.535 31.7595 223.951 34.85C226.368 37.8843 228.166 41.1995 229.346 44.7957C230.582 48.3919 231.2 51.96 231.2 55.5C231.2 58.9838 230.582 62.5519 229.346 66.2043C228.166 69.8005 226.339 73.1438 223.867 76.2343C221.451 79.2686 218.417 81.7129 214.764 83.5671C211.112 85.4214 206.785 86.3486 201.784 86.3486ZM202.206 81.9657C205.465 81.9657 208.274 81.2352 210.634 79.7743C213.05 78.3133 215.017 76.3748 216.534 73.9586C218.108 71.4862 219.259 68.789 219.99 65.8671C220.72 62.889 221.086 59.939 221.086 57.0171C221.086 53.421 220.664 49.9652 219.821 46.65C218.979 43.2786 217.686 40.2724 215.944 37.6314C214.259 34.9343 212.151 32.8271 209.623 31.31C207.094 29.7367 204.172 28.95 200.857 28.95C197.598 28.95 194.76 29.7086 192.344 31.2257C189.928 32.7429 187.961 34.7376 186.444 37.21C184.927 39.6262 183.775 42.3233 182.989 45.3014C182.258 48.2233 181.893 51.1733 181.893 54.1514C181.893 57.0733 182.286 60.1638 183.073 63.4229C183.859 66.6819 185.068 69.7162 186.697 72.5257C188.327 75.3352 190.406 77.611 192.934 79.3529C195.519 81.0948 198.609 81.9657 202.206 81.9657ZM193.609 19.0043C192.26 19.0043 191.08 18.4705 190.069 17.4029C189.113 16.2791 188.636 14.9305 188.636 13.3571C188.636 11.7276 189.141 10.379 190.153 9.31143C191.164 8.18762 192.344 7.62572 193.693 7.62572C195.041 7.62572 196.193 8.18762 197.149 9.31143C198.104 10.379 198.581 11.7276 198.581 13.3571C198.581 14.9305 198.076 16.2791 197.064 17.4029C196.053 18.4705 194.901 19.0043 193.609 19.0043ZM208.611 19.0043C207.263 19.0043 206.111 18.4705 205.156 17.4029C204.2 16.2791 203.723 14.9305 203.723 13.3571C203.723 11.7276 204.2 10.379 205.156 9.31143C206.167 8.18762 207.347 7.62572 208.696 7.62572C210.1 7.62572 211.252 8.18762 212.151 9.31143C213.05 10.379 213.5 11.7276 213.5 13.3571C213.5 14.9305 212.994 16.2791 211.983 17.4029C211.028 18.4705 209.904 19.0043 208.611 19.0043ZM272.595 44.2057C272.314 41.34 271.584 38.7552 270.404 36.4514C269.224 34.1476 267.594 32.3214 265.515 30.9729C263.436 29.5681 260.852 28.8938 257.761 28.95C254.614 28.95 252.114 29.821 250.26 31.5629C248.405 33.3048 247.478 35.4119 247.478 37.8843C247.478 40.0757 248.096 41.93 249.333 43.4471C250.569 44.9081 252.226 46.2286 254.305 47.4086C256.441 48.5886 258.829 49.7686 261.47 50.9486C263.605 51.8476 265.768 52.859 267.96 53.9829C270.151 55.1067 272.146 56.399 273.944 57.86C275.742 59.2648 277.175 60.9786 278.243 63.0014C279.31 64.9681 279.844 67.3 279.844 69.9971C279.844 73.1438 279.029 75.9533 277.4 78.4257C275.77 80.8981 273.438 82.8367 270.404 84.2414C267.426 85.6462 263.802 86.3486 259.531 86.3486C257.115 86.3486 254.558 85.9833 251.861 85.2529C249.22 84.5224 246.804 83.4829 244.613 82.1343L245.034 85.6743H239.893L239.555 67.1314H243.601C244.051 72.02 245.793 75.7286 248.827 78.2571C251.917 80.7295 255.598 81.9657 259.868 81.9657C262.004 81.9657 263.942 81.5724 265.684 80.7857C267.426 79.999 268.803 78.8752 269.814 77.4143C270.825 75.9533 271.331 74.2395 271.331 72.2729C271.331 69.969 270.629 68.0305 269.224 66.4571C267.875 64.8838 266.134 63.5352 263.998 62.4114C261.919 61.2876 259.728 60.22 257.424 59.2086C255.12 58.1971 252.873 57.1295 250.681 56.0057C248.546 54.8819 246.607 53.5895 244.865 52.1286C243.124 50.6676 241.747 48.9538 240.735 46.9871C239.724 44.9643 239.218 42.6043 239.218 39.9071C239.218 38.3338 239.499 36.6762 240.061 34.9343C240.623 33.1924 241.578 31.5348 242.927 29.9614C244.275 28.3881 246.102 27.1238 248.405 26.1686C250.765 25.1571 253.715 24.6514 257.255 24.6514C259.391 24.6514 261.779 24.9605 264.42 25.5786C267.117 26.1967 269.561 27.2924 271.753 28.8657L271.415 25.3257H276.473V44.2057H272.595ZM287.779 85V81.2914C289.634 81.179 290.954 80.7857 291.741 80.1114C292.584 79.4371 293.117 78.4257 293.342 77.0771C293.567 75.7286 293.679 74.0148 293.679 71.9357V36.8729C293.679 35.6367 293.707 34.4567 293.764 33.3329C293.82 32.1529 293.876 31.1414 293.932 30.2986C292.977 30.3548 291.937 30.411 290.814 30.4671C289.69 30.5233 288.678 30.5795 287.779 30.6357V26H308.514V29.7086C306.716 29.7648 305.395 30.1581 304.552 30.8886C303.709 31.5629 303.176 32.5743 302.951 33.9229C302.726 35.2152 302.614 36.9291 302.614 39.0643V73.9586C302.614 75.4757 302.586 76.8243 302.529 78.0043C302.529 79.1281 302.473 80.0552 302.361 80.7857L316.605 80.6171C320.089 80.561 322.758 79.4371 324.612 77.2457C326.466 74.9981 327.394 71.4581 327.394 66.6257H331.186L330.681 85H287.779ZM366.411 63.6757C366.411 61.2595 366.045 59.5176 365.315 58.45C364.641 57.3824 363.601 56.7362 362.196 56.5114C360.792 56.2305 359.05 56.1462 356.971 56.2586L352.082 56.4271V73.9586C352.082 75.4757 352.054 76.8243 351.998 78.0043C351.998 79.1281 351.942 80.0552 351.829 80.7857L366.326 80.6171C368.518 80.561 370.484 80.1676 372.226 79.4371C373.968 78.6505 375.345 77.33 376.356 75.4757C377.368 73.6214 377.874 71.0929 377.874 67.89H381.582L381.076 85H337.248V81.2914C339.102 81.179 340.423 80.7857 341.209 80.1114C342.052 79.4371 342.586 78.4257 342.811 77.0771C343.035 75.7286 343.148 74.0148 343.148 71.9357V36.8729C343.148 35.6367 343.176 34.4567 343.232 33.3329C343.288 32.1529 343.344 31.1414 343.401 30.2986C342.445 30.3548 341.406 30.411 340.282 30.4671C339.158 30.5233 338.147 30.5795 337.248 30.6357V26H378.379L378.801 41.2557H375.092C375.092 38.0529 374.558 35.6086 373.491 33.9229C372.479 32.2371 371.131 31.1133 369.445 30.5514C367.815 29.9895 366.045 29.7367 364.135 29.7929L358.235 29.9614C356.493 29.9614 355.173 30.2705 354.274 30.8886C353.374 31.4505 352.784 32.4057 352.504 33.7543C352.223 35.0467 352.082 36.8167 352.082 39.0643V52.2971H365.989L365.484 45.0486H370.119V63.6757H366.411ZM389.762 85V81.2914C391.616 81.179 392.937 80.7857 393.723 80.1114C394.566 79.4371 395.1 78.4257 395.325 77.0771C395.549 75.7286 395.662 74.0148 395.662 71.9357V36.8729C395.662 35.6367 395.69 34.4567 395.746 33.3329C395.802 32.1529 395.858 31.1414 395.915 30.2986C394.959 30.3548 393.92 30.411 392.796 30.4671C391.672 30.5233 390.661 30.5795 389.762 30.6357V26C393.189 25.9438 396.645 25.9157 400.129 25.9157C403.613 25.8595 407.125 25.8595 410.665 25.9157C415.947 25.9157 420.301 26.5338 423.729 27.77C427.157 28.95 429.713 30.72 431.399 33.08C433.141 35.44 433.984 38.4181 433.927 42.0143C433.984 44.2619 433.534 46.5095 432.579 48.7571C431.624 50.9486 430.022 52.9152 427.775 54.6571C425.527 56.399 422.437 57.7195 418.503 58.6186C419.627 59.2929 420.638 60.22 421.537 61.4C422.437 62.58 423.364 63.9005 424.319 65.3614L429.46 73.2843C430.528 74.97 431.511 76.4029 432.41 77.5829C433.309 78.7629 434.321 79.69 435.445 80.3643C436.568 80.9824 437.917 81.2914 439.49 81.2914V85H427.775C426.314 83.7638 425.049 82.4433 423.982 81.0386C422.97 79.5776 421.875 77.9481 420.695 76.15L414.879 66.71C414.148 65.5862 413.362 64.3781 412.519 63.0857C411.732 61.7933 410.861 60.6976 409.906 59.7986C409.007 59.7986 408.108 59.7986 407.209 59.7986C406.366 59.7986 405.495 59.7986 404.596 59.7986V73.7057C404.596 75.2229 404.568 76.5995 404.512 77.8357C404.512 79.0157 404.456 79.971 404.343 80.7014C405.017 80.6452 405.72 80.6171 406.45 80.6171C407.237 80.561 407.996 80.5048 408.726 80.4486C409.513 80.3924 410.187 80.3643 410.749 80.3643V85H389.762ZM409.485 55.6686C412.575 55.6124 415.216 55.1348 417.407 54.2357C419.599 53.2805 421.285 51.8476 422.465 49.9371C423.645 47.9705 424.235 45.4419 424.235 42.3514C424.235 40.0476 423.897 38.109 423.223 36.5357C422.549 34.9624 421.594 33.6981 420.357 32.7429C419.121 31.7314 417.632 31.0291 415.89 30.6357C414.205 30.1862 412.378 29.9614 410.412 29.9614C408.614 29.9614 407.293 30.2986 406.45 30.9729C405.664 31.6471 405.158 32.6305 404.933 33.9229C404.708 35.2152 404.596 36.8729 404.596 38.8957V55.4157C405.439 55.4719 406.226 55.5562 406.956 55.6686C407.743 55.7248 408.586 55.7248 409.485 55.6686ZM484.596 86.3486C482.124 86.3486 479.708 86.0395 477.348 85.4214C474.988 84.8595 472.853 83.9324 470.942 82.64C469.032 81.2914 467.514 79.6057 466.391 77.5829C465.267 75.5038 464.705 73.0033 464.705 70.0814C464.705 66.429 465.913 63.1981 468.329 60.3886C470.745 57.5229 473.92 55.2752 477.853 53.6457C476.224 51.6229 474.932 49.7686 473.976 48.0829C473.021 46.341 472.319 44.6552 471.869 43.0257C471.476 41.3962 471.279 39.7667 471.279 38.1371C471.335 33.979 472.824 30.6919 475.746 28.2757C478.668 25.8595 482.433 24.6514 487.041 24.6514C489.963 24.6514 492.491 25.2133 494.626 26.3371C496.762 27.4048 498.419 28.8657 499.599 30.72C500.779 32.5743 501.369 34.6533 501.369 36.9571C501.369 39.0924 500.863 41.1433 499.852 43.11C498.897 45.0767 497.436 46.931 495.469 48.6729C493.503 50.3586 491.03 51.9881 488.052 53.5614C489.176 54.6852 490.553 56.1181 492.182 57.86C493.868 59.6019 495.666 61.4281 497.576 63.3386C499.487 65.1929 501.313 66.9348 503.055 68.5643C503.28 67.6652 503.448 66.7943 503.561 65.9514C503.673 65.1086 503.729 64.3219 503.729 63.5914C503.729 62.1867 503.533 60.9224 503.139 59.7986C502.802 58.6186 502.212 57.6914 501.369 57.0171C500.583 56.2867 499.459 55.8933 497.998 55.8371V52.1286H512.495V56.5957L506.342 56.2586C507.016 56.989 507.494 57.8881 507.775 58.9557C508.112 60.0233 508.309 61.2595 508.365 62.6643C508.421 63.9005 508.309 65.3333 508.028 66.9629C507.747 68.5362 507.297 70.1657 506.679 71.8514C507.185 72.301 507.691 72.7786 508.196 73.2843C508.758 73.7338 509.348 74.2114 509.966 74.7171C512.383 76.8524 514.49 78.4819 516.288 79.6057C518.086 80.7295 519.491 81.2914 520.502 81.2914V85H512.242C511.736 85 510.641 84.5224 508.955 83.5671C507.269 82.5557 505.134 80.9543 502.549 78.7629C500.583 80.8981 498.11 82.6962 495.132 84.1571C492.21 85.6181 488.698 86.3486 484.596 86.3486ZM486.113 81.5443C489.204 81.6005 491.817 81.0948 493.952 80.0271C496.087 78.9595 497.857 77.5829 499.262 75.8971C498.756 75.4476 498.251 74.9981 497.745 74.5486C497.295 74.0429 496.79 73.5652 496.228 73.1157C492.632 69.6319 489.541 66.5976 486.956 64.0129C484.372 61.4281 482.096 59.04 480.129 56.8486C478.612 57.86 477.404 59.0962 476.505 60.5571C475.662 61.9619 475.044 63.3948 474.651 64.8557C474.313 66.2605 474.145 67.4967 474.145 68.5643C474.145 71.4862 474.679 73.9024 475.746 75.8129C476.87 77.6671 478.331 79.0719 480.129 80.0271C481.983 80.9824 483.978 81.4881 486.113 81.5443ZM485.608 50.78C488.417 48.8133 490.496 46.5938 491.845 44.1214C493.193 41.5929 493.868 39.2048 493.868 36.9571C493.868 34.4848 493.222 32.4619 491.929 30.8886C490.693 29.2591 488.923 28.4443 486.619 28.4443C484.596 28.4443 482.883 29.231 481.478 30.8043C480.073 32.3776 479.371 34.6252 479.371 37.5471C479.371 39.6824 479.961 41.93 481.141 44.29C482.321 46.5938 483.81 48.7571 485.608 50.78ZM575.643 63.6757C575.643 61.2595 575.278 59.5176 574.548 58.45C573.873 57.3824 572.834 56.7362 571.429 56.5114C570.024 56.2305 568.282 56.1462 566.203 56.2586L561.315 56.4271V73.9586C561.315 75.4757 561.287 76.8243 561.231 78.0043C561.231 79.1281 561.174 80.0552 561.062 80.7857L575.559 80.6171C577.751 80.561 579.717 80.1676 581.459 79.4371C583.201 78.6505 584.578 77.33 585.589 75.4757C586.601 73.6214 587.106 71.0929 587.106 67.89H590.815L590.309 85H546.481V81.2914C548.335 81.179 549.655 80.7857 550.442 80.1114C551.285 79.4371 551.819 78.4257 552.043 77.0771C552.268 75.7286 552.381 74.0148 552.381 71.9357V36.8729C552.381 35.6367 552.409 34.4567 552.465 33.3329C552.521 32.1529 552.577 31.1414 552.633 30.2986C551.678 30.3548 550.639 30.411 549.515 30.4671C548.391 30.5233 547.38 30.5795 546.481 30.6357V26H587.612L588.033 41.2557H584.325C584.325 38.0529 583.791 35.6086 582.723 33.9229C581.712 32.2371 580.363 31.1133 578.678 30.5514C577.048 29.9895 575.278 29.7367 573.368 29.7929L567.468 29.9614C565.726 29.9614 564.405 30.2705 563.506 30.8886C562.607 31.4505 562.017 32.4057 561.736 33.7543C561.455 35.0467 561.315 36.8167 561.315 39.0643V52.2971H575.222L574.716 45.0486H579.352V63.6757H575.643ZM644.677 86.18L613.323 44.5429C612.705 43.8124 612.115 43.0538 611.553 42.2671C610.991 41.4805 610.401 40.6657 609.783 39.8229H609.699L609.952 72.61C609.952 74.0148 609.923 75.4195 609.867 76.8243C609.867 78.229 609.811 79.5214 609.699 80.7014C610.654 80.589 611.693 80.5329 612.817 80.5329C613.997 80.4767 615.009 80.4205 615.852 80.3643V85H599.163V81.2914C600.736 81.2914 601.916 80.9824 602.703 80.3643C603.546 79.7462 604.108 78.9314 604.389 77.92C604.726 76.9086 604.894 75.7286 604.894 74.38V36.62C604.894 35.4962 604.894 34.3724 604.894 33.2486C604.894 32.1248 604.923 31.1414 604.979 30.2986C604.08 30.3548 603.068 30.411 601.944 30.4671C600.877 30.5233 599.922 30.5795 599.079 30.6357V26H610.204L639.873 65.0243C640.828 66.2605 641.671 67.4124 642.402 68.48C643.188 69.5476 643.947 70.559 644.677 71.5143H644.762L644.846 36.8729C644.846 35.6367 644.874 34.4567 644.93 33.3329C644.986 32.1529 645.043 31.1414 645.099 30.2986C644.087 30.3548 643.02 30.411 641.896 30.4671C640.772 30.5233 639.789 30.5795 638.946 30.6357V26H655.634V29.7086C653.836 29.7648 652.516 30.1581 651.673 30.8886C650.886 31.5629 650.381 32.5743 650.156 33.9229C649.987 35.2152 649.903 36.9291 649.903 39.0643L649.819 86.18H644.677ZM690.764 86.3486C685.032 86.3486 680.003 85.1124 675.677 82.64C671.35 80.1676 668.007 76.7119 665.647 72.2729C663.287 67.7776 662.107 62.5519 662.107 56.5957C662.107 52.6624 662.697 48.8133 663.877 45.0486C665.113 41.2838 666.939 37.8562 669.355 34.7657C671.828 31.6752 674.89 29.231 678.542 27.4329C682.251 25.5786 686.55 24.6514 691.438 24.6514C693.292 24.6514 695.231 24.82 697.254 25.1571C699.277 25.4943 701.243 26 703.154 26.6743C705.12 27.3486 706.89 28.1633 708.464 29.1186L708.127 25.2414H713.352V44.6271H709.475C709.194 41.2557 708.239 38.4181 706.61 36.1143C705.036 33.7543 702.985 31.9843 700.457 30.8043C697.984 29.5681 695.231 28.95 692.197 28.95C689.219 28.95 686.493 29.6243 684.021 30.9729C681.605 32.2652 679.498 34.0914 677.7 36.4514C675.901 38.7552 674.497 41.4805 673.485 44.6271C672.53 47.7738 672.052 51.1452 672.052 54.7414C672.052 59.911 672.895 64.5186 674.581 68.5643C676.323 72.5538 678.767 75.7005 681.914 78.0043C685.06 80.3081 688.741 81.46 692.955 81.46C694.304 81.46 695.765 81.3476 697.338 81.1229C698.968 80.8419 700.569 80.4486 702.142 79.9429C703.772 79.381 705.233 78.6786 706.525 77.8357V68.3957C706.525 66.991 706.525 65.6143 706.525 64.2657C706.581 62.861 706.61 61.5686 706.61 60.3886C705.71 60.4448 704.699 60.501 703.575 60.5571C702.451 60.6133 701.468 60.6695 700.625 60.7257V56.09H720.769V59.7986C719.421 59.7986 718.325 60.1076 717.482 60.7257C716.696 61.3438 716.106 62.1305 715.712 63.0857C715.375 63.9848 715.15 64.9681 715.038 66.0357C714.926 67.0471 714.87 68.0024 714.87 68.9014V82.05H712.678C711.498 82.05 710.121 82.2467 708.548 82.64C706.975 82.9771 705.205 83.511 703.238 84.2414C701.496 84.8595 699.501 85.3652 697.254 85.7586C695.006 86.1519 692.843 86.3486 690.764 86.3486ZM756.067 63.6757C756.067 61.2595 755.702 59.5176 754.972 58.45C754.297 57.3824 753.258 56.7362 751.853 56.5114C750.448 56.2305 748.706 56.1462 746.627 56.2586L741.739 56.4271V73.9586C741.739 75.4757 741.711 76.8243 741.655 78.0043C741.655 79.1281 741.598 80.0552 741.486 80.7857L755.983 80.6171C758.175 80.561 760.141 80.1676 761.883 79.4371C763.625 78.6505 765.002 77.33 766.013 75.4757C767.025 73.6214 767.53 71.0929 767.53 67.89H771.239L770.733 85H726.905V81.2914C728.759 81.179 730.079 80.7857 730.866 80.1114C731.709 79.4371 732.243 78.4257 732.467 77.0771C732.692 75.7286 732.805 74.0148 732.805 71.9357V36.8729C732.805 35.6367 732.833 34.4567 732.889 33.3329C732.945 32.1529 733.001 31.1414 733.057 30.2986C732.102 30.3548 731.063 30.411 729.939 30.4671C728.815 30.5233 727.804 30.5795 726.905 30.6357V26H768.036L768.457 41.2557H764.749C764.749 38.0529 764.215 35.6086 763.147 33.9229C762.136 32.2371 760.787 31.1133 759.102 30.5514C757.472 29.9895 755.702 29.7367 753.792 29.7929L747.892 29.9614C746.15 29.9614 744.829 30.2705 743.93 30.8886C743.031 31.4505 742.441 32.4057 742.16 33.7543C741.879 35.0467 741.739 36.8167 741.739 39.0643V52.2971H755.646L755.14 45.0486H759.776V63.6757H756.067ZM779.419 85V81.2914C781.273 81.179 782.593 80.7857 783.38 80.1114C784.223 79.4371 784.757 78.4257 784.981 77.0771C785.206 75.7286 785.319 74.0148 785.319 71.9357V36.8729C785.319 35.6367 785.347 34.4567 785.403 33.3329C785.459 32.1529 785.515 31.1414 785.571 30.2986C784.616 30.3548 783.577 30.411 782.453 30.4671C781.329 30.5233 780.318 30.5795 779.419 30.6357V26C782.846 25.9438 786.302 25.9157 789.786 25.9157C793.27 25.8595 796.781 25.8595 800.321 25.9157C805.603 25.9157 809.958 26.5338 813.386 27.77C816.813 28.95 819.37 30.72 821.056 33.08C822.798 35.44 823.64 38.4181 823.584 42.0143C823.64 44.2619 823.191 46.5095 822.236 48.7571C821.28 50.9486 819.679 52.9152 817.431 54.6571C815.184 56.399 812.093 57.7195 808.16 58.6186C809.284 59.2929 810.295 60.22 811.194 61.4C812.093 62.58 813.02 63.9005 813.976 65.3614L819.117 73.2843C820.185 74.97 821.168 76.4029 822.067 77.5829C822.966 78.7629 823.978 79.69 825.101 80.3643C826.225 80.9824 827.574 81.2914 829.147 81.2914V85H817.431C815.97 83.7638 814.706 82.4433 813.639 81.0386C812.627 79.5776 811.531 77.9481 810.351 76.15L804.536 66.71C803.805 65.5862 803.019 64.3781 802.176 63.0857C801.389 61.7933 800.518 60.6976 799.563 59.7986C798.664 59.7986 797.765 59.7986 796.866 59.7986C796.023 59.7986 795.152 59.7986 794.253 59.7986V73.7057C794.253 75.2229 794.225 76.5995 794.169 77.8357C794.169 79.0157 794.112 79.971 794 80.7014C794.674 80.6452 795.377 80.6171 796.107 80.6171C796.894 80.561 797.652 80.5048 798.383 80.4486C799.17 80.3924 799.844 80.3643 800.406 80.3643V85H779.419ZM799.141 55.6686C802.232 55.6124 804.873 55.1348 807.064 54.2357C809.256 53.2805 810.941 51.8476 812.121 49.9371C813.301 47.9705 813.891 45.4419 813.891 42.3514C813.891 40.0476 813.554 38.109 812.88 36.5357C812.206 34.9624 811.25 33.6981 810.014 32.7429C808.778 31.7314 807.289 31.0291 805.547 30.6357C803.861 30.1862 802.035 29.9614 800.069 29.9614C798.27 29.9614 796.95 30.2986 796.107 30.9729C795.32 31.6471 794.815 32.6305 794.59 33.9229C794.365 35.2152 794.253 36.8729 794.253 38.8957V55.4157C795.096 55.4719 795.882 55.5562 796.613 55.6686C797.4 55.7248 798.242 55.7248 799.141 55.6686ZM877.987 44.2057C877.931 41.0029 877.566 38.3338 876.892 36.1986C876.217 34.0633 875.094 32.4619 873.52 31.3943C872.003 30.3267 869.896 29.821 867.199 29.8771H861.13L861.046 73.7057C861.046 75.2229 861.018 76.5995 860.962 77.8357C860.962 79.0157 860.905 79.971 860.793 80.7014C861.861 80.589 863.013 80.5329 864.249 80.5329C865.541 80.4767 866.693 80.4205 867.704 80.3643V85H846.296V81.2914C848.15 81.179 849.471 80.7857 850.257 80.1114C851.044 79.4371 851.55 78.4257 851.774 77.0771C851.999 75.6724 852.112 73.9586 852.112 71.9357V29.9614L845.032 30.0457C841.604 30.0457 839.104 31.1976 837.53 33.5014C835.957 35.8052 835.17 39.3733 835.17 44.2057H831.209L831.714 26H881.443L881.949 44.2057H877.987Z" fill="#004646"/>
</svg>
