<svg xmlns="http://www.w3.org/2000/svg" viewBox="0 0 157.33 162.03" aria-hidden="true">
  <path d="M119.23,95.06c-2.42,6.02-5.23,10.46-8.89,14.36-4.24,4.51-9.22,7.94-14.95,10.27-8.07,3.28-16.39,4.04-24.92,2.26-1.63-.34-3.26-.79-4.84-1.33-5.29-1.82-9.87-4.83-13.96-8.62-3.91-3.62-7-7.87-9.31-12.67-2.66-5.53-4.07-11.37-4.21-17.51-.16-6.94,1.27-13.55,4.37-19.75,5.38-10.76,13.84-18,25.24-21.8,3.49-1.16,7.09-1.79,10.77-1.99,5.4-.29,10.67,.41,15.78,2.17,5.66,1.95,10.58,5.14,14.77,9.37,9.67,9.74,13.83,21.51,12.53,35.18-.37,3.84-1.36,7.55-2.38,10.07m-16.6-6.08c0-.13,0-.25,0-.37-.07-5.69-.15-11.37-.22-17.06,0-.34-.1-.58-.35-.82-4.3-4.1-8.59-8.21-12.89-12.31-.13-.13-.36-.22-.54-.22-5.96,0-11.91,.02-17.87,.02-.33,0-.55,.12-.78,.34-3.97,4.07-7.95,8.13-11.92,12.21-.16,.16-.28,.43-.28,.65,0,6.51,.02,13.02,.02,19.52,0,.37,.1,.64,.37,.9,3.02,2.94,6.02,5.89,9.04,8.82,1.05,1.02,2.15,2,3.23,2.99,.09,.09,.22,.18,.34,.19,.5,.05,1,.12,1.5,.11,5.27-.06,10.54-.13,15.81-.22,.22,0,.5-.12,.65-.27,4.54-4.73,9.07-9.46,13.6-14.2,.09-.1,.18-.2,.26-.3m14.69,8.16c-1.23-3.24-2.3-8.41-3.42-11.69,.03,.08-1.04-3.19-1.68-4.88-.1,.08-.14,.12-.18,.16-2.69,2.81-5.39,5.63-8.07,8.45-.15,.16-.23,.45-.23,.67,.04,4.12,.1,8.24,.15,12.35,0,.14,.05,.49,.07,.48,.11-.04,.18-.07,.25-.1l13.1-5.46Zm-75.3-31.39c1.06,3.62,2.78,7.83,4.17,11.47,.4,.95,.82,1.89,1.25,2.87,.12-.12,.24-.24,.35-.35,2.85-2.91,5.7-5.83,8.55-8.73,.27-.28,.39-.55,.39-.94-.02-2.63-.01-5.25-.02-7.88,0-1.27-.01-2.53-.02-3.83-.12,.04-.2,.06-.28,.1l-14.39,7.28Zm14.32,37.74c.12,.05,.25,.1,.44,.17,0-.21,0-.34,0-.47,0-3.6-.02-7.2-.01-10.79,0-.35-.11-.58-.35-.81-2.91-2.84-5.81-5.68-8.71-8.52-.12-.12-.25-.23-.41-.36-.06,.14-.09,.23-.12,.31-1.49,4.2-2.92,9.69-4.46,13.87l13.62,6.61Zm46.04,1.03s-.38,.14-.45,.14c-4.21,.05-8.42,.11-12.63,.18-.19,0-.43,.13-.57,.27-1.7,1.76-3.4,3.53-5.09,5.3-.91,.95-1.81,1.9-2.77,2.91,.2,.08,.32,.13,.45,.18,4.08,1.66,10.15,3.63,14.39,4.96l6.67-13.93Zm-38.26-61.63c-1.63,4.38-3.94,9.44-5.88,13.88-.04,.12-.07,.24-.11,.38,.11,0,.17,.02,.23,.02,3.73,0,7.46,0,11.19-.03,.2,0,.46-.13,.6-.28,1.92-1.94,3.83-3.89,5.74-5.85,.87-.89,1.75-1.79,2.68-2.74-.31-.12-.54-.22-.78-.31l-13.68-5.07Zm41.79,16.35c-.84-.35-1.69-.68-2.57-1.03,0,.1-.02,.16-.02,.22,.05,3.95,.1,7.91,.17,11.86,0,.2,.15,.45,.3,.6,2.42,2.33,4.84,4.65,7.27,6.97,.3,.28,.6,.56,.93,.86,.07-.13,.11-.2,.15-.28,1.88-4.36,3.41-9.65,5.28-14.01l-11.5-5.18Zm-4.07-2.38c-2.32-4.57-4.38-9.76-6.69-14.28-4.75,1.75-9.82,3.93-14.62,5.62,.09,.11,.16,.29,.2,.34,2.82,2.76,5.63,5.51,8.46,8.26,.15,.14,.42,.22,.63,.22,2.08,0,4.15-.04,6.22-.07,1.89-.02,3.79-.05,5.78-.08m-43.66,48.12c2.22,4.55,4.42,9.04,6.62,13.56,4.72-1.75,9.41-3.49,14.13-5.24-.16-.16-.26-.27-.37-.37-2.05-1.96-4.09-3.93-6.15-5.88-.67-.64-1.39-1.22-2.09-1.82-.06-.06-.14-.12-.22-.13-.5-.05-1.01-.13-1.52-.13-2.08-.01-4.15,0-6.23,0-1.37,0-2.74,0-4.18,.01m44.47-14.44c-4.24,4.43-8.39,8.77-12.61,13.18,.23,.01,.34,.02,.46,.02,3.85-.05,7.7-.1,11.56-.15,.65,0,.77-.13,.76-.79-.04-3.23-.09-6.45-.13-9.67-.01-.82-.02-1.63-.04-2.58m-45.9-.1c-.01-6.14-.02-12.15-.04-18.24-.12,.1-.17,.13-.21,.17-2.83,2.89-5.66,5.78-8.49,8.67-.31,.31-.29,.57,.02,.87,1.75,1.71,3.5,3.42,5.25,5.13,1.12,1.09,2.24,2.19,3.46,3.39m45.85-34.12c2.02-1.81,4.1-3.62,6.08-5.39-3.59-3.58-8.01-6.73-12.58-8.81l6.5,14.2Zm-7.95-14.69c-4.71-1.64-9.92-2.43-14.97-2.3,.21,2.68,.42,5.3,.63,7.97l14.35-5.67Zm7.57,16.32c-3.93,.05-7.82,.1-11.83,.15,4.02,3.84,7.96,7.62,11.98,11.46-.05-3.94-.1-7.76-.15-11.62m-14.25-.82c-2.86-2.8-5.65-5.52-8.45-8.27-2.7,2.76-5.38,5.49-8.12,8.3,5.57-.01,11.01-.02,16.58-.03m15.72,30.77c2.64-2.76,5.2-5.43,7.78-8.14-2.66-2.54-5.28-5.05-7.99-7.65,.07,5.3,.14,10.48,.21,15.78m-45.91-18.37c3.71-3.79,7.33-7.5,11.04-11.28-3.77,0-7.4,.02-11.06,.02,0,3.76,.01,7.45,.02,11.26m.12,23.55c-.04,.1-.07,.14-.07,.18,0,3.39,.01,6.78,.01,10.16,0,.37,.16,.5,.54,.5,2.75-.02,5.49-.02,8.24-.03,.74,0,1.49,0,2.32,0-3.71-3.63-7.36-7.2-11.04-10.81m29.51,11.79c-5.2,.07-10.31,.14-15.49,.2,.16,.16,.26,.27,.36,.37,2.38,2.28,4.77,4.56,7.15,6.84,.47,.45,.49,.45,.95-.02,2.24-2.34,4.48-4.68,6.71-7.02,.09-.09,.16-.2,.31-.38m-35.49,5.93c3.45,3.31,7.32,5.93,11.71,7.82-2.19-4.48-4.38-8.96-6.58-13.48-1.74,1.92-3.42,3.77-5.13,5.66m27.55,11.02c.06-2.56,.12-5.07,.19-7.63-4.74,1.76-9.41,3.49-14.07,5.22,4.48,1.66,9.09,2.43,13.89,2.42M50.89,51.96c-3.33,3.45-6.2,7.71-8.23,12.18,4.52-2.17,9.16-4.66,13.61-6.8-1.81-1.81-3.58-3.58-5.38-5.38m67.27,43.57c1.66-4.5,2.68-10.79,2.64-15.58-2.54,.06-5.04,.12-7.6,.18,1.75,4.62,3.23,10.84,4.96,15.41m-14.7-38.48c4.48,1.86,9.21,4.14,13.62,5.97-1.83-4.07-4.59-8.12-7.64-11.34-2.01,1.8-3.97,3.56-5.98,5.37m-24.85-17.71c-4.45,.24-8.7,1.16-12.81,2.85,4.46,1.71,8.91,3.43,13.44,5.17-.21-2.71-.42-5.34-.63-8.02m-39.4,42.41c.12,4.58,1.1,9.81,2.75,14.05,1.54-4.36,2.92-9.56,4.49-13.99-2.45-.02-4.82-.04-7.24-.07m58.22,35.72c4.13-1.96,8.05-4.69,11.27-7.92-1.78-1.66-3.51-3.28-5.29-4.94-1.92,4.29-4.09,8.64-5.98,12.86m20.7-51.92c-1.77,4.12-3.29,9.29-5.09,13.49,2.63-.06,5.17-.11,7.75-.17-.15-4.23-1.17-9.35-2.66-13.32m-55.23-22.35c-3.87,1.98-8.23,5.04-11.26,7.99,1.83,1.82,3.64,3.62,5.49,5.47,1.85-4.38,4.15-9.12,5.76-13.46m-6.77,61.34c-3.99-1.88-9.18-4.68-13.23-6.31,1.87,3.85,5.28,8.73,8.27,11.77,1.65-1.83,3.35-3.69,4.96-5.47m38.16,14.42s-9.46-2.86-13.55-4.5c-.06,2.41-.12,4.84-.18,7.3,0,0,5.95,.15,13.73-2.81m-55.07-38.29c2.44,.02,4.83,.04,7.34,.07-1.86-4.18-3.65-9.02-5.2-13.24-1.21,3.84-2.13,8.93-2.14,13.18m70.24,28.11c2.92-3.09,5.28-6.51,7.03-10.11-4.04,1.66-8.17,3.36-12.39,5.1,1.83,1.71,3.58,3.35,5.36,5.01" fill="currentColor"/>
</svg>
