<svg fill="currentColor" aria-hidden="true" viewBox="0 0 11.64 19.91"><path d="M11.64,.32s-.01-.04-.02-.06c0-.02,0-.04,0-.06,0-.01-.02-.02-.02-.02-.01-.03-.04-.05-.06-.07s-.04-.04-.07-.06c0,0-.01-.02-.02-.02-.02,0-.04,0-.06,0-.02,0-.04-.02-.06-.02H.32s-.04,.01-.06,.02c-.02,0-.04,0-.06,0-.01,0-.02,.02-.02,.02-.03,.01-.05,.04-.07,.06s-.04,.04-.06,.07c0,0-.02,.01-.02,.02,0,.02,0,.04,0,.06,0,.02-.02,.04-.02,.06V19.59s.01,.04,.02,.06c0,.02,0,.04,0,.06,0,.01,.02,.02,.02,.02,.01,.03,.04,.05,.06,.07s.04,.04,.07,.06c0,0,.01,.02,.02,.02,.04,.02,.08,.02,.12,.02H11.32s.08,0,.12-.02c.01,0,.02-.02,.02-.02,.03-.01,.05-.04,.07-.06s.04-.04,.06-.07c0,0,.02-.01,.02-.02,0-.02,0-.04,0-.06,0-.02,.02-.04,.02-.06V.32ZM.64,18.82V1.1l1.8,1.8v14.13l-1.8,1.8ZM3.08,3.08h5.48v13.75H3.08V3.08Zm7.92-1.98V18.82l-1.8-1.8V2.89l1.8-1.8Zm-.45-.45l-1.17,1.17-.63,.63H2.89L1.1,.64H10.54ZM1.1,19.27l1.8-1.8h5.85l1.8,1.8H1.1Z" /></svg>