<svg fill="currentColor" aria-hidden="true" viewBox="0 0 91.51 91.52"><path d="M45.67,91.52s.05,0,.08,0c.03,0,.06,0,.08,0h.02c6.91-.02,13.47-1.58,19.35-4.35,.05-.02,.12-.02,.17-.04,.06-.03,.1-.07,.15-.1,5.52-2.66,10.43-6.4,14.45-10.94,.02-.01,.04-.02,.05-.03,.11-.09,.19-.2,.24-.31,3.34-3.84,6.05-8.24,7.98-13.05,0,0,0,0,0-.01,2.1-5.24,3.26-10.95,3.26-16.93s-1.16-11.69-3.26-16.93c0,0,0-.01,0-.02-1.92-4.8-4.63-9.2-7.98-13.04-.05-.11-.13-.22-.24-.31-.02-.01-.04-.02-.06-.03-4.02-4.53-8.93-8.27-14.45-10.93-.05-.03-.09-.07-.16-.1-.05-.02-.11-.02-.17-.04C59.31,1.58,52.76,.02,45.85,0h-.02s-.06,0-.08,0c-.03,0-.05,0-.08,0h-.01c-6.92,.01-13.48,1.58-19.36,4.35-.05,.02-.1,.02-.15,.04-.06,.03-.09,.06-.14,.09-5.53,2.66-10.44,6.4-14.47,10.94-.02,.01-.04,.02-.05,.03-.11,.1-.19,.21-.25,.32-3.28,3.77-5.95,8.07-7.86,12.77-.05,.08-.08,.17-.1,.25-2.1,5.25-3.27,10.97-3.27,16.96H0c0,6,1.17,11.72,3.27,16.97,.02,.09,.05,.17,.1,.25,1.91,4.7,4.59,9,7.86,12.77,.05,.12,.13,.22,.25,.32,.02,.01,.04,.02,.05,.03,4.03,4.54,8.94,8.28,14.47,10.94,.05,.03,.08,.07,.14,.09,.05,.02,.1,.02,.15,.04,5.88,2.78,12.44,4.34,19.36,4.35h.01Zm-16.72-5.49l6.73-6.98,7.66,10.43c-5.08-.29-9.93-1.49-14.39-3.45ZM6.45,63.1l7.22-2.59-1.98,11.74c-2.09-2.8-3.85-5.87-5.24-9.15ZM11.69,19.27l1.98,11.73-7.22-2.59c1.39-3.27,3.15-6.34,5.24-9.14ZM43.34,2.05l-7.66,10.43-6.73-6.99c4.46-1.95,9.31-3.15,14.39-3.44Zm19.21,3.44l-6.73,6.98-7.66-10.43c5.08,.29,9.93,1.49,14.39,3.44Zm22.51,22.93l-7.22,2.59,1.98-11.73c2.09,2.8,3.86,5.87,5.24,9.14Zm-5.24,43.83l-1.98-11.73,7.22,2.59c-1.39,3.27-3.16,6.34-5.24,9.14Zm-31.65,17.23l7.66-10.43,6.73,6.98c-4.46,1.95-9.31,3.16-14.39,3.45ZM20.84,49.37l5.68,13.11-9.38-4.15,3.7-8.96Zm-3.7-16.18l9.38-4.15-5.68,13.11-3.7-8.96Zm53.51,8.96l-5.68-13.11,9.39,4.15-3.7,8.96Zm3.7,16.18l-9.39,4.15,5.68-13.11,3.7,8.96Zm-44.03,5.86l-7.99-18.44,7.99-18.44,15.42-8.22,15.42,8.22,7.99,18.44-7.99,18.44-15.42,8.22-15.42-8.22Zm18.13,9.3l10.77-5.75-4.39,7.92-6.38-2.17Zm23.76-27.74l4.45-10.75,11.56,10.75-11.56,10.76-4.45-10.76Zm-23.76-27.74l6.38-2.18,4.39,7.92-10.77-5.75Zm5.22-3.99l-7.93,2.7-7.94-2.7,7.93-10.81,7.94,10.81Zm-10.64,3.99l-10.77,5.75,4.39-7.92,6.38,2.18Zm-23.76,27.74l-4.44,10.76L3.28,45.76l11.56-10.75,4.44,10.75Zm23.76,27.74l-6.38,2.17-4.39-7.92,10.77,5.75Zm-5.23,3.99l7.94-2.7,7.93,2.7-7.94,10.81-7.93-10.81Zm25.84-12.07l11.22-4.95,2.38,14.1-19.4,1.34,5.81-10.49Zm14.58-7l10.2-9.49c-.3,4.27-1.19,8.37-2.61,12.22l-7.59-2.72Zm0-25.32l7.59-2.72c1.42,3.84,2.31,7.95,2.61,12.22l-10.2-9.49Zm-3.36-2.05l-11.22-4.96-5.81-10.48,19.4,1.34-2.38,14.1Zm-47.03-4.96l-11.21,4.95-2.38-14.1,19.4-1.34-5.81,10.48Zm-14.58,7L3.06,42.59c.3-4.27,1.19-8.37,2.61-12.21l7.59,2.72Zm0,25.32l-7.59,2.72c-1.42-3.85-2.31-7.95-2.61-12.22l10.2,9.49Zm3.36,2.05l11.21,4.95,5.81,10.49-19.4-1.34,2.38-14.1Zm48.32,24.41l-6.76-7.01,17.9-1.24c-3.24,3.33-7,6.12-11.14,8.25ZM76.08,14.89l-17.9-1.24,6.76-7.01c4.14,2.13,7.9,4.92,11.14,8.25ZM26.56,6.64l6.76,7.01-17.9,1.24c3.24-3.33,7-6.12,11.14-8.25ZM15.42,76.63l17.9,1.24-6.76,7.01c-4.14-2.13-7.9-4.92-11.14-8.25Z" /></svg>