<svg fill="currentColor" aria-hidden="true" viewBox="0 0 19.99 19.99"><path d="M19.82,.07C19.77,.04,19.72,0,19.66,0H.33c-.06,0-.11,.04-.16,.07-.09,.06-.16,.14-.16,.26V19.66c0,.18,.15,.33,.33,.33H19.66c.18,0,.33-.15,.33-.33V.33c0-.12-.07-.2-.16-.26ZM9.53,9.99l-2.37,2.37V7.62l2.37,2.37Zm-1.91-2.83h4.74l-2.37,2.37-2.37-2.37Zm2.37,3.29l2.37,2.37H7.62l2.37-2.37Zm.46-.46l2.37-2.37v4.74l-2.37-2.37Zm2.56-3.48H6.97l-2.77-2.77H15.79l-2.77,2.77Zm-6.51,.46v6.04l-2.77,2.77V4.2l2.77,2.77Zm.46,6.51h6.04l2.77,2.77H4.2l2.77-2.77Zm6.51-.46V6.97l2.77-2.77V15.79l-2.77-2.77Zm2.96-9.93H3.55L1.11,.65H18.87l-2.43,2.43Zm-13.35,.46v12.89l-2.43,2.43V1.11L3.09,3.55Zm.46,13.35h12.89l2.43,2.43H1.11l2.43-2.43Zm13.35-.46V3.55l2.43-2.43V18.87l-2.43-2.43Z" /></svg>