<svg fill="currentColor" aria-hidden="true" viewBox="0 0 20 20"><path d="M12.41,0H7.59C3.41,0,0,3.41,0,7.59v4.81c0,4.19,3.41,7.59,7.59,7.59h4.81c4.19,0,7.59-3.41,7.59-7.59V7.59c0-4.19-3.41-7.59-7.59-7.59Zm6.87,13.57l-1.47-.53,1.57-1.98v1.34c0,.4-.03,.79-.1,1.16Zm-6.37,3.67l1.4-2.52,2.69-1.19,.81,3.28c-.12,.15-.25,.29-.38,.42h-4.52Zm3.98,.51c-.74,.62-1.61,1.09-2.56,1.36l-1.34-1.39,3.9,.03Zm-13.96-.16c-.16-.14-.31-.29-.45-.44l.52-3.61,2.7,1.19,1.4,2.52-4.16,.34Zm4.08,.13l-1.34,1.39c-.77-.22-1.49-.57-2.13-1.03l3.47-.36ZM.62,12.41v-1.34l1.57,1.98-1.47,.53c-.06-.38-.1-.77-.1-1.16Zm0-2.66l1.95-2.34,1.07,2.59-1.07,2.58-1.95-2.33v-.5Zm.1-3.32l1.47,.53-1.57,1.98v-1.34c0-.4,.03-.79,.1-1.16ZM2.74,2.59l4.35,.16-1.4,2.52-2.7,1.19-.64-3.48c.12-.14,.24-.27,.37-.39Zm.58-.5c.69-.54,1.49-.95,2.35-1.2l1.34,1.39-3.7-.19Zm13.88,.44c.15,.14,.29,.29,.43,.44l-.62,3.5-2.69-1.19-1.4-2.52,4.28-.23Zm-4.2-.24l1.34-1.39c.83,.24,1.6,.63,2.27,1.14l-3.61,.26Zm6.39,5.31v1.34l-1.57-1.98,1.47-.53c.06,.38,.1,.77,.1,1.16Zm-1.67-1.14l.49-2.74c.45,.67,.78,1.41,.98,2.21l-1.47,.53ZM5.38,14.02l-2.26-1,.89-2.15,1.37,3.15ZM3.12,6.98l2.26-1-1.37,3.15-.89-2.15Zm1.25,3.02l1.92-4.43,3.71-1.98,3.71,1.98,1.92,4.43-1.92,4.43-3.71,1.98-3.71-1.98-1.92-4.43Zm11.61,.87l.89,2.15-2.26,1,1.37-3.15Zm-1.37-4.88l2.26,1-.89,2.15-1.37-3.15Zm-1.38-1.27l-2.59-1.38,1.53-.52,1.06,1.9Zm-3.24-1.69l-1.91-.65,1.69-1.75h.43l1.69,1.75-1.91,.65Zm-.65,.31l-2.59,1.38,1.06-1.9,1.53,.52ZM2.29,6.45l-1.47-.53c.19-.79,.52-1.53,.96-2.19l.51,2.71Zm0,7.09l-.4,2.87c-.49-.7-.86-1.49-1.07-2.34l1.47-.53Zm4.47,1.74l2.59,1.38-1.53,.52-1.06-1.9Zm3.24,1.69l1.91,.65-1.69,1.75h-.43l-1.69-1.75,1.91-.65Zm.65-.31l2.59-1.38-1.06,1.9-1.53-.52Zm7.06-3.12l1.47,.53c-.17,.7-.45,1.35-.81,1.95l-.66-2.47Zm-.28-.96l-1.07-2.58,1.07-2.59,1.95,2.33v.5l-1.95,2.33ZM13.64,.73l-1.22,1.27-1.42-1.38h1.4c.42,0,.84,.04,1.24,.11Zm-4.65-.11l-1.42,1.38-1.22-1.27c.4-.07,.81-.11,1.24-.11h1.4Zm-2.64,18.65l1.22-1.27,1.42,1.38h-1.4c-.42,0-.84-.04-1.24-.11Zm4.65,.11l1.42-1.38,1.22,1.27c-.4,.07-.82,.11-1.24,.11h-1.4Z" /></svg>