<svg fill="currentColor" aria-hidden="true" viewBox="0 0 13.13 19.95"><path d="M13.11,13.56c0-.07,.01-.11,.01-.12,0-.76-.05-1.51-.16-2.23,0,0,0-.02,0-.03-.26-1.66-.78-3.2-1.43-4.57,0-.05-.03-.1-.06-.13-.71-1.46-1.54-2.73-2.31-3.74,0-.02-.01-.04-.03-.06,0-.01-.02-.02-.04-.03C7.84,1.04,6.77,.09,6.75,.07h0s-.02-.01-.03-.02c0,0-.01-.01-.02-.02,0,0,0,0-.01,0h-.02s-.03-.01-.04-.02c-.01,0-.03,0-.04,0,0,0-.01,0-.02,0-.01,0-.03,0-.04,0-.01,0-.03,0-.04,0,0,0-.01,0-.02,0h-.01s-.01,.02-.02,.02c-.01,0-.02,.01-.03,.02h0s-1.09,.97-2.34,2.59c-.01,.01-.03,.02-.04,.03-.02,.02-.02,.04-.03,.06-.77,1.01-1.6,2.27-2.3,3.72h0s-.06,.1-.07,.16C.95,7.99,.43,9.52,.17,11.17c-.01,.03-.01,.06-.01,.09C.05,11.97,0,12.71,0,13.46c0,0,0,.04,.01,.1-.02,.08-.01,.16,.04,.22,.07,.43,.25,1.24,.64,2.14,0,0,0,.02,0,.03,0,.04,.03,.07,.05,.09,.3,.67,.71,1.37,1.27,2,.02,.04,.05,.08,.09,.1,.49,.52,1.09,.98,1.83,1.3,0,0,.02,.01,.02,.02,0,0,.02,0,.03,0,.7,.3,1.51,.48,2.47,.48h.21c.96,0,1.78-.18,2.47-.48,0,0,.02,0,.03,0,0,0,.02-.01,.02-.02,.74-.32,1.34-.78,1.83-1.3,.04-.03,.07-.06,.09-.1,.56-.62,.97-1.33,1.27-1.99,.02-.03,.04-.06,.05-.1,0-.01,0-.02,0-.03,.38-.89,.56-1.7,.63-2.14,.05-.07,.06-.15,.04-.23Zm-1.1,2.01l-.49-.13,.83-.87c-.08,.3-.19,.64-.34,1Zm-2.82,3.29l-.28-.61,1.25-.03c-.29,.24-.61,.46-.97,.64Zm-6.26-.64l1.29,.03-.29,.62c-.37-.18-.7-.4-1-.65ZM.76,14.54l.85,.89-.51,.14c-.15-.37-.26-.72-.34-1.03ZM9.97,4.88l-1.36-1.46,.24-.18c.37,.49,.75,1.04,1.12,1.64Zm-3.82-.27l-1.85,1.94,.77-2.72,1.08,.78Zm.41,12.45l-2.69-.95-.88-2.46,1-5.98,2.57-2.7,2.57,2.7,1,5.98-.88,2.46-2.69,.95Zm-3.83-2.53l.45,1.25-.72-.35,.28-.9Zm7.66,0l.28,.9-.72,.35,.45-1.25Zm.12-1.9l-.6-3.6,1.18,2.09-.58,1.51Zm-.87-5.19l-.86-3.04,2.21,2.37,.1,3.23-1.44-2.56Zm-1.59-3.6l.77,2.72-1.85-1.94,1.08-.78Zm-1.49,.41l-1.3-.93L6.56,.85l1.3,2.46-1.3,.93ZM2.61,12.64l-.58-1.51,1.18-2.09-.6,3.6Zm-.18,1.05l-.42,1.37-1.39-1.45,1.07-1.86,.74,1.95Zm1.04,2.84l.7,1.18-1.64-.03-.09-1.65,1.04,.51Zm1.3,1.13l-.49-.83,1.46,.52-.97,.32Zm1.8-.03l1.39,.46-1.39,1.23-1.39-1.23,1.39-.46Zm.83-.29l1.46-.52-.49,.83-.97-.32Zm2.27-.81l1.04-.51-.09,1.65-1.64,.03,.7-1.18Zm1.46-1.48l-.42-1.37,.74-1.95,1.07,1.86-1.39,1.45Zm.45-6.94c.34,.89,.62,1.84,.79,2.84l-.71-.09-.08-2.76Zm-3.28-5.12l-.62-1.18c.26,.29,.54,.63,.84,1.01l-.22,.17Zm-3.48,0l-.22-.17c.3-.38,.58-.72,.84-1.01l-.62,1.18Zm-1.34,4.46l-1.44,2.56,.1-3.23,2.21-2.37-.86,3.04Zm-2.02,3.42l-.71,.09c.17-.99,.45-1.94,.79-2.83l-.08,2.75Zm-.79,.64l.55-.07-.65,1.14c.02-.36,.05-.72,.1-1.07Zm1.2,4.42l.07,1.21c-.25-.35-.45-.71-.62-1.07l.55-.15Zm2.87,2.51l1.08,.95c-.51-.05-.96-.15-1.38-.3l.3-.65Zm3.66,0l.3,.64c-.41,.15-.87,.26-1.37,.31l1.08-.95Zm2.87-2.51l.53,.14c-.16,.34-.36,.69-.59,1.02l.06-1.16Zm.64-4.48l.56,.07c.05,.35,.08,.71,.1,1.07l-.66-1.14ZM4.28,3.24l.24,.18-1.35,1.45c.37-.6,.75-1.14,1.11-1.63Z" /></svg>