<svg fill="currentColor" aria-hidden="true" viewBox="0 0 20.01 20.01"><path d="M20.01,.33s0-.02-.01-.02c0-.08-.03-.15-.09-.21-.06-.06-.13-.08-.21-.09,0,0-.02-.01-.02-.01H.33s-.02,0-.02,.01c-.08,0-.15,.03-.21,.09C.04,.15,.02,.23,.01,.3c0,0-.01,.02-.01,.02V19.68s0,.02,.01,.02c0,.08,.03,.15,.09,.21,.06,.06,.14,.1,.23,.1H19.68c.09,0,.17-.04,.23-.1,.06-.06,.08-.13,.09-.21,0,0,.01-.02,.01-.02V.33ZM.92,19.09l1.89-4.67h2.77v2.77l-4.67,1.89Zm12.92-5.25l-3.84,1.56-3.84-1.56-1.56-3.84,1.56-3.84,3.84-1.56,3.84,1.56,1.56,3.84-1.56,3.84Zm1.91-2.97l1.17,2.89h-2.35l1.17-2.89Zm-10.33,2.89H3.08l1.17-2.89,1.17,2.89Zm-1.17-4.63l-1.17-2.89h2.35l-1.17,2.89Zm10.33-2.89h2.35l-1.17,2.89-1.17-2.89Zm-3.71-1.99l2.89-1.17v2.35l-2.89-1.17Zm-.87-.35l-2.39-.97h4.77l-2.39,.97Zm-.87,.35l-2.89,1.17V3.08l2.89,1.17Zm-3.55,1.33H2.81L.92,.92l4.67,1.89v2.77Zm-1.69,4.42l-.97,2.39V7.62l.97,2.39Zm2.34,4.58l2.89,1.17-2.89,1.17v-2.35Zm3.76,1.53l2.39,.97H7.62l2.39-.97Zm.87-.35l2.89-1.17v2.35l-2.89-1.17Zm3.55-1.33h2.77l1.89,4.67-4.67-1.89v-2.77Zm1.69-4.42l.97-2.39v4.77l-.97-2.39Zm1.09-4.42h-2.77V2.81l4.67-1.89-1.89,4.67Zm-3.19-3.31H6.01L2,.65H18.01l-4.01,1.63ZM2.28,6.01v7.99l-1.63,4.01V2l1.63,4.01Zm3.73,11.72h7.99l4.01,1.63H2l4-1.63Zm11.72-3.73V6.01l1.63-4V18.01l-1.63-4Z" /></svg>